<svg width="640" height="640" viewBox="0 0 640 640" fill="none" xmlns="http://www.w3.org/2000/svg">
<rect width="640" height="640" fill="white"/>
<path d="M165.519 316V279.175H81.7485L75.5641 243.193L163.27 118.1H213.869V239.82H236.358V279.175H213.869V316H165.519ZM125.882 240.101H165.8V181.911L125.882 240.101ZM257.279 316V119.224H321.933C385.464 119.224 421.165 157.174 421.165 215.363V218.737C421.165 276.645 385.183 316 321.371 316H257.279ZM322.777 164.483H307.878V270.742H322.777C350.607 270.742 369.441 253.875 369.441 219.018V216.207C369.441 181.068 350.888 164.483 322.777 164.483Z" fill="#FF9800"/>
<path d="M158.448 530.247C104.756 530.247 64.2766 492.298 64.2766 430.454V426.518C64.2766 367.767 104.475 326.725 159.01 326.725C187.121 326.725 207.361 334.877 226.476 350.619L198.365 388.85C188.245 379.573 176.72 372.827 159.853 372.827C134.835 372.827 115.719 394.753 115.719 427.362V430.173C115.719 466.155 134.835 485.832 160.416 485.832C170.254 485.832 177.844 483.864 183.185 480.21V450.975H151.982V411.901H230.693V505.51C212.421 519.846 188.526 530.247 158.448 530.247ZM256.566 526.874V330.098H326.843C373.225 330.098 403.585 354.274 403.585 398.408V399.532C403.585 446.477 369.29 469.528 326.28 469.528H307.165V526.874H256.566ZM307.165 428.486H324.594C342.585 428.486 353.267 418.085 353.267 401.219V400.656C353.267 382.666 342.585 373.108 324.313 373.108H307.165V428.486ZM516.209 330.098H571.587L516.771 425.956L573.836 526.874H517.052L486.692 465.874L456.051 526.874H400.673L458.019 426.518L403.203 330.098H459.987L487.817 387.163L516.209 330.098Z" fill="#4CAF50"/>
<rect x="522.571" y="128.673" width="41.7107" height="120.623" transform="rotate(23.9491 522.571 128.673)" fill="#FF0000"/>
<path d="M498.875 118.148L585.417 156.587V156.587C581.121 166.26 569.796 170.619 560.123 166.322L508.61 143.442C498.937 139.146 494.579 127.821 498.875 118.148V118.148Z" fill="#FF0000"/>
<path d="M441.669 224.725L544.695 270.486V270.486C552.783 252.278 544.578 230.961 526.37 222.874L489.281 206.4C471.073 198.313 449.756 206.517 441.669 224.725V224.725Z" fill="#FF0000"/>
<rect x="497.068" y="222.194" width="12.4005" height="101.458" rx="6.20024" transform="rotate(23.9491 497.068 222.194)" fill="#FF0000"/>
</svg>
